<svg viewBox="0 0 150 150" fill="none" xmlns="http://www.w3.org/2000/svg">
  <path d="M150 0 C130 20 120 50 140 80 C160 110 120 130 100 150" stroke="#68a562" stroke-width="4" stroke-linecap="round"/>
  <path d="M150 20 C110 20 90 40 80 70 C70 100 80 120 60 140" stroke="#68a562" stroke-width="4" stroke-linecap="round"/>
  <path d="M150 50 C120 40 100 10 70 0" stroke="#68a562" stroke-width="4" stroke-linecap="round"/>
  <path d="M130 30 C120 20 110 30 120 40 C130 50 140 40 130 30Z" fill="#7ab583" stroke="#2c2c2c" stroke-width="2"/>
  <path d="M100 50 C90 40 80 50 90 60 C100 70 110 60 100 50Z" fill="#7ab583" stroke="#2c2c2c" stroke-width="2"/>
  <path d="M130 80 C120 70 110 80 120 90 C130 100 140 90 130 80Z" fill="#7ab583" stroke="#2c2c2c" stroke-width="2"/>
  <path d="M90 90 C80 80 70 90 80 100 C90 110 100 100 90 90Z" fill="#7ab583" stroke="#2c2c2c" stroke-width="2"/>
  <path d="M120 -20 L160 -20 L150 20 L130 20 Z" fill="#d48a60" stroke="#2c2c2c" stroke-width="2"/>
</svg>
