<svg xmlns="http://www.w3.org/2000/svg" viewBox="0 0 150 150" width="150" height="150">
  <circle cx="75" cy="75" r="50" fill="#f57f17" stroke="#e65100" stroke-width="4"/>
  <circle cx="75" cy="75" r="42" fill="#4a3124"/>
  <circle cx="75" cy="75" r="35" fill="#2e7d32" stroke="#1b5e20" stroke-width="3"/>
  <g fill="none" stroke="#1b5e20" stroke-width="2">
    <path d="M75,40 L75,110" />
    <path d="M50,50 Q40,75 50,100" />
    <path d="M100,50 Q110,75 100,100" />
  </g>
  <g stroke="#f0f4c3" stroke-width="2" stroke-linecap="round">
    <path d="M60,60 L55,55 M60,60 L65,55 M60,60 L60,52" />
    <path d="M90,60 L85,55 M90,60 L95,55 M90,60 L90,52" />
    <path d="M75,85 L70,90 M75,85 L80,90 M75,85 L75,93" />
  </g>
  <g fill="#ec407a" stroke="#880e4f" stroke-width="1.5">
    <circle cx="70" cy="68" r="5"/>
    <circle cx="80" cy="68" r="5"/>
    <circle cx="75" cy="63" r="5"/>
    <circle cx="75" cy="73" r="5"/>
    <circle cx="75" cy="68" r="3" fill="#ffeb3b"/>
  </g>
</svg>