<svg viewBox="0 0 200 150" fill="none" xmlns="http://www.w3.org/2000/svg">
  <path d="M200 130 C150 140 100 130 60 100 C20 70 10 30 30 10 C50 -10 90 0 110 30 C130 60 120 100 90 120 C60 140 20 130 -10 100" stroke="#909b9f" stroke-width="12" stroke-linecap="round" stroke-linejoin="round"/>
  <path d="M200 130 C150 140 100 130 60 100 C20 70 10 30 30 10 C50 -10 90 0 110 30 C130 60 120 100 90 120 C60 140 20 130 -10 100" stroke="#2c2c2c" stroke-width="18" stroke-linecap="round" stroke-linejoin="round" style="mix-blend-mode: overlay;" />
  <path d="M200 130 C150 140 100 130 60 100 C20 70 10 30 30 10 C50 -10 90 0 110 30 C130 60 120 100 90 120 C60 140 20 130 -10 100" stroke="#2c2c2c" stroke-width="3" stroke-dasharray="8 4" stroke-linecap="round" stroke-linejoin="round"/>
</svg>
